<svg width="135" height="35" viewBox="0 0 135 35" fill="none" xmlns="http://www.w3.org/2000/svg">
<path d="M46.5248 21.2614C45.962 21.2614 45.3724 21.8072 45.2116 22.4623C45.0508 23.1173 45.3724 23.6632 45.9352 23.6632C46.498 23.6632 47.0876 23.1173 47.2484 22.4623C47.3824 21.8072 47.0608 21.2614 46.5248 21.2614Z" fill="white"/>
<path d="M47.0072 25.137H45.3992V34.0072H47.0072V25.137Z" fill="white"/>
<path d="M19.5104 18.3137C23.0212 20.4698 27.4164 18.1772 29.882 15.4479C30.8736 14.3562 29.2656 12.6913 28.274 13.8103C26.4784 15.7481 23.584 17.6586 20.904 16.4304C18.492 15.3387 18.2776 12.2546 18.8136 9.96197C19.4568 7.15077 21.3864 4.72168 23.8252 3.32973C26.1836 1.99236 29.3192 2.29259 30.4448 5.0492C31.0076 6.41386 33.2052 5.81341 32.6424 4.42146C31.1952 0.873344 27.7648 -0.518607 24.2004 0.654999C20.4216 1.88319 17.6344 5.56777 16.616 9.36152C15.7316 12.6367 16.5088 16.485 19.5104 18.3137Z" fill="white"/>
<path d="M92.7817 0.218302C87.7433 -0.191096 83.5089 4.85814 82.3297 9.36151C82.3297 9.36151 79.9981 16.5942 78.8189 20.2242C78.3633 21.6434 80.5609 22.2712 81.0165 20.8519C81.6061 19.0506 82.1689 17.2492 82.7585 15.4752C83.6965 17.4676 85.4653 18.9414 88.0381 19.1598C93.0229 19.5692 97.2037 14.6291 98.4633 10.153C98.4901 10.0984 98.4901 10.0711 98.4901 10.0165C98.4901 9.96196 98.5169 9.90738 98.5169 9.88008C99.4817 5.4313 97.7129 0.627699 92.7817 0.218302ZM96.2925 9.36151C95.3545 12.8823 92.4601 16.485 88.6813 16.7853C84.8757 17.0855 83.8305 13.0461 84.5273 9.98925C84.5541 9.93467 84.5541 9.88008 84.5809 9.82549C85.4385 6.35926 88.5205 2.83845 92.1653 2.53822C95.9441 2.238 96.9893 6.30468 96.2925 9.36151Z" fill="white"/>
<path d="M45.5332 18.341C46.3104 15.83 48.1328 9.77094 48.1596 9.66177C48.3204 9.03403 48.4276 8.40628 48.4544 7.80583C48.6688 5.04922 47.436 2.18344 44.9704 0.87337C41.9688 -0.736927 38.4848 0.709611 36.046 2.67472C34.8936 3.60269 36.5284 5.24028 37.654 4.31231C39.396 2.89306 41.9152 1.85592 44.0592 3.00224C45.8816 3.98479 46.2568 6.25012 46.1228 8.16064C46.1228 8.21523 46.1228 8.26982 46.096 8.3244C42.4244 7.80583 38.0828 7.915 34.8936 9.77094C33.3124 10.6716 32.3208 12.5275 32.1868 14.3289C32.0528 16.4578 33.768 17.9316 35.5368 18.6139C38.458 19.7329 41.2452 18.8869 43.4964 17.0309C43.4428 17.2493 43.3624 17.4676 43.3088 17.6587C42.88 19.1598 45.0776 19.7602 45.5332 18.341ZM36.18 16.4305C34.8936 15.9392 34.1432 14.8475 34.7328 13.4555C35.2688 12.1727 36.3408 11.5723 37.6004 11.1902C40.0928 10.3987 42.9604 10.2895 45.5868 10.617C45.56 10.6716 45.56 10.7262 45.5332 10.7808C43.9788 14.5199 40.0392 17.9316 36.18 16.4305Z" fill="white"/>
<path d="M74.5577 0.218302C71.1809 -0.0546298 68.1792 2.10153 66.196 4.91273C65.4724 2.40175 63.6232 0.46394 60.568 0.218302C55.5296 -0.191096 51.2952 4.85814 50.116 9.36151V9.3888C49.2316 12.1727 48.374 14.9566 47.4896 17.7405C47.034 19.187 49.2584 19.7875 49.6872 18.3683C50.5716 15.5571 52.3672 9.82549 52.3672 9.77091C53.3588 6.33197 56.1996 2.83845 59.9248 2.53822C63.7304 2.238 64.7757 6.30468 64.0788 9.36151C64.0788 9.3888 62.3368 14.9839 61.4792 17.7405C61.0236 19.187 63.248 19.7875 63.6768 18.3683C64.5612 15.5844 66.33 9.88008 66.33 9.82549C67.3216 6.35926 70.1624 2.86574 73.9144 2.56551C77.72 2.26529 78.7652 6.33197 78.0684 9.3888C78.0684 9.3888 76.3264 14.9839 75.442 17.7678C74.9864 19.2143 77.2109 19.8148 77.6397 18.3955C78.5241 15.6116 80.2929 9.88008 80.2929 9.82549C81.2577 5.37671 79.4621 0.627699 74.5577 0.218302Z" fill="white"/>
<path d="M116.955 1.03706C116.178 3.49344 115.428 5.92253 114.65 8.35163C114.195 9.85275 113.739 11.272 112.908 12.6367C111.568 14.7655 109.264 16.5942 106.718 16.7852C102.43 17.1127 101.84 12.2818 102.832 9.14313C103.609 6.65945 104.386 4.14848 105.19 1.6648C105.646 0.218264 103.421 -0.382185 102.992 1.03706C102.135 3.73908 101.304 6.4411 100.446 9.14313C99.0529 13.5919 101.197 18.723 106.101 19.1324C111.381 19.5691 115.213 14.3561 116.607 9.85275C117.464 7.12343 118.322 4.39412 119.18 1.6921C119.608 0.218264 117.411 -0.382185 116.955 1.03706Z" fill="white"/>
<path d="M133.92 4.4761C133.035 2.26535 131.4 0.655055 129.015 0.272951C126.362 -0.136447 123.87 1.09175 121.886 2.72934C119.823 4.4488 118.134 7.31459 120.788 9.30699C122.61 10.6716 125.29 10.9446 127.407 11.545C128.238 11.7907 129.417 12.0363 129.9 12.5003C130.275 12.8551 129.873 13.3191 129.337 13.9741C126.791 16.6216 122.02 18.4502 120.144 14.1106C119.555 12.7459 117.572 13.9195 118.161 15.2842C119.153 17.5768 121.109 18.8596 123.521 19.0779C126.362 19.3509 129.149 17.5222 131.025 15.5298C131.079 15.4752 131.132 15.4207 131.159 15.3388C132.499 13.7831 132.848 11.8725 130.998 10.5079C129.31 9.27969 126.898 9.00676 124.942 8.4609C123.602 8.10609 121.511 7.45105 121.645 6.60496C122.047 5.04925 124.325 3.54813 125.719 2.94768C128.024 1.96513 130.704 2.53828 131.695 5.04925C132.258 6.4685 134.456 5.86805 133.92 4.4761Z" fill="white"/>
<path d="M3.51069 18.3137C7.02149 20.4699 11.4167 18.1772 13.8823 15.4479C14.8739 14.3562 13.2659 12.6913 12.2743 13.8103C10.5055 15.7481 7.58429 17.6587 4.90429 16.4305C2.49229 15.3387 2.27789 12.2546 2.81389 9.96199C3.45709 7.15079 5.38669 4.7217 7.82549 3.32975C9.96949 2.12885 12.7567 2.26532 14.0967 4.36689C12.0331 5.81343 9.96949 7.23267 7.90589 8.65192C6.69989 9.49801 7.82549 11.5177 9.05829 10.6716C11.4167 9.03402 13.7751 7.39643 16.1335 5.75884C16.5087 5.48591 16.8571 4.94005 16.6695 4.44877C15.1955 0.873366 11.7651 -0.518586 8.20069 0.65502C4.39509 1.88321 1.60789 5.56779 0.616291 9.36154C-0.268109 12.6367 0.509091 16.4851 3.51069 18.3137Z" fill="white"/>
<path d="M5.7352 21.6708C2.1172 21.6708 0 24.3455 0 27.9482C0 31.6328 2.0904 34.1983 5.7352 34.1983C9.3532 34.1983 11.4436 31.6055 11.4436 27.9482C11.4436 24.3455 9.3264 21.6708 5.7352 21.6708ZM5.7352 32.6699C3.0016 32.6699 1.8224 30.35 1.8224 27.9482C1.8224 25.4918 3.1088 23.1992 5.7352 23.2265C8.3616 23.1992 9.648 25.4918 9.648 27.9482C9.648 30.35 8.4688 32.6699 5.7352 32.6699Z" fill="white"/>
<path d="M17.6344 24.9459C16.4284 24.9459 15.276 25.5464 14.7936 26.5562H14.7668V25.1643H13.2124V34.0073H14.8204V29.9133C14.8204 27.7571 15.6244 26.2833 17.4468 26.2833C18.8404 26.3652 19.296 27.375 19.296 29.4493V34.0345H20.904V28.767C20.8772 26.3652 19.8856 24.9459 17.6344 24.9459Z" fill="white"/>
<path d="M25.2724 31.3053V26.4744H27.5772V25.1643H25.2724V21.6162L23.6644 22.0256V25.137H22.2708V26.4471H23.6644V31.6055C23.6644 33.3796 24.6828 34.1711 26.3444 34.1711C26.8536 34.1711 27.3628 34.0346 27.7112 33.9254V32.5335C27.47 32.6972 27.1216 32.8337 26.6124 32.8337C25.8888 32.8883 25.2724 32.3151 25.2724 31.3053Z" fill="white"/>
<path d="M36.3407 28.6032C36.3407 26.2014 35.3491 24.9459 32.8567 24.9459C31.7579 24.9459 30.7931 25.3007 29.9891 25.7647L30.0695 27.1567C30.7127 26.6108 31.6775 26.256 32.5887 26.256C34.1967 26.256 34.7327 27.0475 34.7327 28.5759C34.0895 28.5486 33.6607 28.5486 33.0175 28.5486C31.3559 28.5486 28.9707 29.2309 28.9707 31.469C28.9707 33.4068 30.2839 34.2256 32.1599 34.2256C33.6339 34.2256 34.4647 33.4068 34.8399 32.8609H34.8667V34.0073H36.3675C36.3407 33.7343 36.2871 33.2703 36.2871 32.2605V28.6032H36.3407ZM34.7327 30.5683C34.7327 31.8784 33.9019 32.8882 32.3207 32.8882C31.5971 32.8882 30.7127 32.397 30.7127 31.4417C30.7127 29.886 32.8567 29.7495 33.7143 29.7495C34.0627 29.7495 34.3843 29.7768 34.7327 29.7768V30.5683Z" fill="white"/>
<path d="M39.9053 26.5289H39.8785V25.1642H38.3777V34.0072H39.9857V29.9951C39.9857 27.7844 40.9237 26.3924 42.3441 26.3924C42.6121 26.3924 42.9337 26.4197 43.2285 26.5562V25.1097C42.8801 25.0278 42.6389 25.0005 42.1833 25.0005C41.2453 24.9459 40.3341 25.6009 39.9053 26.5289Z" fill="white"/>
<path d="M53.0907 24.9459C50.4375 24.9459 48.6687 26.8837 48.6687 29.5858C48.6687 32.124 50.4643 34.2256 53.0907 34.2256C55.6903 34.2256 57.5127 32.124 57.5127 29.5858C57.4859 26.8837 55.7171 24.9459 53.0907 24.9459ZM53.0907 32.8882C51.1879 32.8882 50.3571 31.1415 50.3571 29.5858C50.3571 27.8936 51.3755 26.2833 53.0907 26.2833C54.8059 26.2833 55.7975 27.9209 55.7975 29.5858C55.7975 31.1415 54.9399 32.8882 53.0907 32.8882Z" fill="white"/>
</svg>
