<svg width="149" height="38" viewBox="0 0 149 38" fill="none" xmlns="http://www.w3.org/2000/svg">
<g clip-path="url(#clip0_579_1927)">
<path d="M33.4991 31.2942V22.5126C33.4991 20.4769 32.5465 19.4391 30.9192 19.4391C29.2919 19.4391 28.2202 20.4769 28.2202 22.5126V31.2942H23.9336V16.0862H28.2202V18.2416C29.2125 16.9643 30.4826 15.8068 32.6656 15.8068C35.9203 15.8068 37.7857 17.9622 37.7857 21.4349V31.2942H33.4991Z" fill="white"/>
<path d="M46.3194 31.5336C43.6998 31.5336 41.9137 30.4957 41.9137 26.9831V19.5987H40.0879V16.0462H41.9137V12.1743H46.2003V16.0462H49.7725V19.5987H46.2003V26.2647C46.2003 27.2626 46.6369 27.7415 47.5895 27.7415C48.3436 27.7415 49.0581 27.542 49.6931 27.1827V30.6554C48.7802 31.2142 47.7483 31.5336 46.3194 31.5336Z" fill="white"/>
<path d="M80.1362 10.5778H84.661V14.4097H80.1362V10.5778ZM80.2553 16.0862H84.5419V31.2941H80.2553V16.0862Z" fill="white"/>
<path d="M10.5181 27.6618C6.74747 27.6618 4.56447 25.187 4.56447 21.3551C4.56447 17.5231 6.74747 15.0883 10.5181 15.0883C14.2888 15.0883 16.4718 17.5631 16.4718 21.395C16.4718 25.2269 14.2888 27.6618 10.5181 27.6618ZM10.5181 11.0967C3.85003 11.0967 0 15.0883 0 21.395C0 27.7017 3.85003 31.6534 10.4784 31.6534C17.1068 31.6534 20.9965 27.6618 20.9965 21.3551C20.9965 15.0484 17.1465 11.0967 10.5181 11.0967Z" fill="white"/>
<path d="M95.6156 27.9412C93.115 27.9412 91.6465 26.2647 91.6465 23.6702C91.6465 21.0757 93.0356 19.4391 95.5759 19.4391C98.0764 19.4391 99.545 21.1156 99.545 23.7101C99.5847 26.3047 98.1558 27.9412 95.6156 27.9412ZM95.6156 15.8068C90.4954 15.8068 87.4392 18.8803 87.4392 23.75C87.4392 28.6198 90.4954 31.6534 95.6156 31.6534C100.775 31.6534 103.832 28.5799 103.832 23.7101C103.792 18.8404 100.736 15.8068 95.6156 15.8068Z" fill="white"/>
<path d="M77.596 19.6786C74.7383 19.6786 73.0713 21.3551 73.0713 24.9874V31.2942H68.864V16.0862H73.0713V19.1597C73.9445 17.0442 75.294 15.687 77.8342 15.8068V19.6786H77.596Z" fill="white"/>
<path d="M61.5211 25.8656C61.5211 27.4223 60.132 28.5799 58.1077 28.5799C56.7185 28.5799 55.7263 27.9013 55.7263 26.7437V26.7038C55.7263 25.3467 56.8773 24.5883 58.7428 24.5883C59.7747 24.5883 60.767 24.7879 61.5211 25.0673V25.8656ZM58.7825 15.9265C56.2025 15.9265 54.5752 16.4055 52.9082 17.1639L53.9005 20.2774C55.2897 19.7584 56.5995 19.3992 58.2268 19.3992C60.3701 19.3992 61.6005 20.437 61.6005 22.2332V22.3929C60.5289 22.1135 59.2588 21.9139 57.7505 21.9139C54.1783 21.9139 51.5984 23.5105 51.5984 26.9433V26.9832C51.5984 29.9769 53.9402 31.5736 56.7979 31.5736C58.9015 31.5736 60.3701 30.8152 61.4814 29.7774V31.2942H65.5299V22.4727C65.5299 18.3614 63.466 15.9265 58.7825 15.9265Z" fill="white"/>
<path d="M132.727 14.0903C132.846 14.4895 132.886 14.8886 132.767 15.2878C132.528 16.1659 131.655 16.8445 130.544 17.2836C130.941 15.9664 130.226 14.8088 129.353 14.0504C127.567 12.5336 125.265 11.6954 122.923 11.6954C122.09 11.6954 121.216 11.8151 120.423 12.0147C121.097 14.4895 122.685 16.6449 125.146 18.0819C125.305 17.6827 125.463 17.4033 125.781 17.0441C126.059 16.7248 126.416 16.5252 126.773 16.4054C127.646 16.1659 128.678 16.605 129.591 17.3634C128.281 17.6827 127.607 18.8802 127.408 20.0378C126.972 22.3928 127.408 24.7878 128.599 26.8235C129.036 27.542 129.552 28.2206 130.147 28.8592C131.933 27.0231 133.044 24.5882 133.005 21.7143C132.608 21.7941 132.29 21.7542 131.814 21.6743C131.417 21.5945 131.06 21.3949 130.782 21.1155C130.147 20.4769 129.988 19.3592 130.187 18.2017C131.099 19.1996 132.489 19.1996 133.56 18.8004C135.783 18.0021 137.648 16.4454 138.839 14.3697C139.276 13.6113 139.593 12.8529 139.792 12.0147C137.331 11.376 134.672 11.6554 132.211 13.0924C132.449 13.3319 132.608 13.6512 132.727 14.0903Z" fill="white"/>
<path d="M141.062 15.6471C139.792 17.8824 137.847 19.6786 135.545 20.7563C135.942 25.8256 133.401 29.9769 130.067 32.2521C126.297 29.6975 124.233 25.3067 124.59 20.7563C120.026 18.5609 117.723 14.25 117.406 10.2185C121.494 8.22269 126.336 8.58193 130.067 11.1765C134.235 8.30252 139.077 8.42227 142.729 10.1786C142.61 12.1345 142.014 13.9706 141.062 15.6471ZM130.107 0C117.247 0 111.214 6.10714 111.214 19C111.214 31.8929 117.287 38 130.107 38C142.967 38 149 31.8929 149 19C149 6.10714 142.927 0 130.107 0Z" fill="white"/>
</g>
<defs>
<clipPath id="clip0_579_1927">
<rect width="149" height="38" fill="white"/>
</clipPath>
</defs>
</svg>
